<svg width="800" height="800" viewBox="0 0 800 800" fill="none" xmlns="http://www.w3.org/2000/svg">
<path d="M61.8393 161.252C64.9235 161.252 67.9607 159.999 70.1368 157.808C72.3286 155.632 73.581 152.594 73.581 149.51C73.581 146.426 72.3286 143.389 70.1368 141.213C67.9607 139.021 64.9391 137.769 61.8393 137.769C58.7395 137.769 55.718 139.021 53.5419 141.213C51.3501 143.389 50.0977 146.426 50.0977 149.51C50.0977 152.594 51.3501 155.632 53.5419 157.808C55.718 159.999 58.7552 161.252 61.8393 161.252Z" fill="#FEDB6E"/>
<path d="M99.4126 161.252C102.512 161.252 105.534 159.999 107.71 157.808C109.902 155.632 111.154 152.594 111.154 149.51C111.154 146.426 109.902 143.389 107.71 141.213C105.534 139.021 102.497 137.769 99.4126 137.769C96.3284 137.769 93.2913 139.021 91.1151 141.213C88.9233 143.389 87.6709 146.426 87.6709 149.51C87.6709 152.594 88.9233 155.632 91.1151 157.808C93.2913 159.999 96.3284 161.252 99.4126 161.252Z" fill="#FEDB6E"/>
<path d="M136.986 161.252C140.07 161.252 143.107 159.999 145.283 157.808C147.475 155.632 148.728 152.594 148.728 149.51C148.728 146.426 147.475 143.389 145.283 141.213C143.107 139.021 140.07 137.769 136.986 137.769C133.902 137.769 130.864 139.021 128.688 141.213C126.497 143.389 125.244 146.426 125.244 149.51C125.244 152.594 126.497 155.632 128.688 157.808C130.864 159.999 133.902 161.252 136.986 161.252Z" fill="#FEDB6E"/>
<path d="M187.084 161.252H663.014C669.499 161.252 674.756 155.995 674.756 149.51C674.756 143.026 669.499 137.769 663.014 137.769H187.084C180.6 137.769 175.343 143.026 175.343 149.51C175.343 155.995 180.6 161.252 187.084 161.252Z" fill="#FEDB6E"/>
<path d="M713.112 161.252H738.161C744.645 161.252 749.902 155.995 749.902 149.51C749.902 143.026 744.645 137.769 738.161 137.769H713.112C706.627 137.769 701.37 143.026 701.37 149.51C701.37 155.995 706.627 161.252 713.112 161.252Z" fill="#FEDB6E"/>
<path d="M688.062 263.014H462.622C442.336 263.014 425.831 279.518 425.831 299.804V300.587H412.524C392.238 300.587 375.734 317.091 375.734 337.378V438.356H349.119V400C349.119 379.713 332.615 363.209 312.328 363.209H111.937C91.6506 363.209 75.1465 379.713 75.1465 400V500.196C75.1465 520.482 91.6506 536.986 111.937 536.986H312.328C332.615 536.986 349.119 520.482 349.119 500.196V461.84H375.734V562.818C375.734 583.104 392.238 599.609 412.524 599.609H425.831V600.391C425.831 620.678 442.336 637.182 462.622 637.182H688.062C708.349 637.182 724.853 620.678 724.853 600.391V575.342C724.853 555.056 708.349 538.552 688.062 538.552H462.622C442.336 538.552 425.831 555.056 425.831 575.342V576.125H412.524C405.186 576.125 399.217 570.156 399.217 562.818V461.84H425.831V462.622C425.831 482.909 442.336 499.413 462.622 499.413H688.062C708.349 499.413 724.853 482.909 724.853 462.622V437.573C724.853 417.287 708.349 400.783 688.062 400.783H462.622C442.336 400.783 425.831 417.287 425.831 437.573V438.356H399.217V337.378C399.217 330.04 405.186 324.07 412.524 324.07H425.831V324.853C425.831 345.14 442.336 361.644 462.622 361.644H688.062C708.349 361.644 724.853 345.14 724.853 324.853V299.804C724.853 279.518 708.349 263.014 688.062 263.014ZM325.636 500.196C325.636 507.533 319.666 513.503 312.328 513.503H111.937C104.599 513.503 98.6299 507.533 98.6299 500.196V400C98.6299 392.662 104.599 386.693 111.937 386.693H312.328C319.666 386.693 325.636 392.662 325.636 400V500.196ZM449.315 575.342C449.315 568.005 455.284 562.035 462.622 562.035H688.062C695.4 562.035 701.37 568.005 701.37 575.342V600.391C701.37 607.729 695.4 613.699 688.062 613.699H462.622C455.284 613.699 449.315 607.729 449.315 600.391V575.342ZM449.315 437.573C449.315 430.236 455.284 424.266 462.622 424.266H688.062C695.4 424.266 701.37 430.236 701.37 437.573V462.622C701.37 469.96 695.4 475.93 688.062 475.93H462.622C455.284 475.93 449.315 469.96 449.315 462.622V437.573ZM701.37 324.853C701.37 332.191 695.4 338.16 688.062 338.16H462.622C455.284 338.16 449.315 332.191 449.315 324.853V299.804C449.315 292.467 455.284 286.497 462.622 286.497H688.062C695.4 286.497 701.37 292.467 701.37 299.804V324.853Z" fill="#FEDB6E"/>
<path d="M738.16 87.6709H61.8395C27.7417 87.6709 0 115.413 0 149.51V650.489C0 684.587 27.7417 712.328 61.8395 712.328H738.16C772.258 712.328 800 684.587 800 650.489V149.51C800 115.413 772.258 87.6709 738.16 87.6709ZM61.8395 111.154H738.16C759.31 111.154 776.517 128.361 776.517 149.51V187.867H23.4834V149.51C23.4834 128.361 40.6904 111.154 61.8395 111.154ZM738.16 688.845H61.8395C40.6904 688.845 23.4834 671.638 23.4834 650.489V211.35H776.517V650.489C776.517 671.638 759.31 688.845 738.16 688.845Z" fill="#FEDB6E"/>
</svg>
